<?xml version="1.0" standalone="no"?><!DOCTYPE svg PUBLIC "-//W3C//DTD SVG 1.1//EN" "http://www.w3.org/Graphics/SVG/1.1/DTD/svg11.dtd"><svg t="1602760217489" class="icon" viewBox="0 0 1036 1024" version="1.1" xmlns="http://www.w3.org/2000/svg" p-id="4384" xmlns:xlink="http://www.w3.org/1999/xlink" width="202.34375" height="200"><defs><style type="text/css"></style></defs><path d="M907.1616 87.3984L1035.264 896.512a102.4 102.4 0 0 1-85.1456 117.1968l-50.5344 7.9872a102.4 102.4 0 0 1-117.1968-85.0944L654.336 127.488A102.4 102.4 0 0 1 739.4304 10.24l50.5856-7.9872a102.4 102.4 0 0 1 117.1456 85.0944z m-351.0272 1.1776l114.0224 811.2128a102.4 102.4 0 0 1-87.1424 115.712l-50.688 7.0656a102.4 102.4 0 0 1-115.712-87.1424L302.6944 124.2112A102.4 102.4 0 0 1 389.7856 8.4992l50.688-7.0656a102.4 102.4 0 0 1 115.712 87.1424zM153.6 0a102.4 102.4 0 0 1 102.4 102.4v819.2a102.4 102.4 0 0 1-102.4 102.4H102.4a102.4 102.4 0 0 1-102.4-102.4V102.4a102.4 102.4 0 0 1 102.4-102.4z" p-id="4385"></path></svg>