<?xml version="1.0" standalone="no"?><!DOCTYPE svg PUBLIC "-//W3C//DTD SVG 1.1//EN" "http://www.w3.org/Graphics/SVG/1.1/DTD/svg11.dtd"><svg t="1602760643684" class="icon" viewBox="0 0 1024 1024" version="1.1" xmlns="http://www.w3.org/2000/svg" p-id="6797" xmlns:xlink="http://www.w3.org/1999/xlink" width="200" height="200"><defs><style type="text/css"></style></defs><path d="M73.142857 851.163429a73.142857 73.142857 0 0 1-73.142857-73.142858v-658.285714a73.142857 73.142857 0 0 1 73.142857-73.142857h877.714286a73.142857 73.142857 0 0 1 73.142857 73.142857v658.285714a73.142857 73.142857 0 0 1-73.142857 73.142858h-109.714286l-93.842286 125.147428a42.642286 42.642286 0 0 1-63.122285 5.705143l-5.12-5.705143L585.142857 851.163429H73.142857z m149.430857-456.045715a73.142857 73.142857 0 1 0 0 146.285715 73.142857 73.142857 0 0 0 0-146.285715z m292.571429 0a73.142857 73.142857 0 1 0 0 146.285715 73.142857 73.142857 0 0 0 0-146.285715z m292.571428 0a73.142857 73.142857 0 1 0 0 146.285715 73.142857 73.142857 0 0 0 0-146.285715z" p-id="6798"></path></svg>