<?xml version="1.0" standalone="no"?><!DOCTYPE svg PUBLIC "-//W3C//DTD SVG 1.1//EN" "http://www.w3.org/Graphics/SVG/1.1/DTD/svg11.dtd"><svg t="1602759778115" class="icon" viewBox="0 0 1024 1024" version="1.1" xmlns="http://www.w3.org/2000/svg" p-id="2282" xmlns:xlink="http://www.w3.org/1999/xlink" width="200" height="200"><defs><style type="text/css"></style></defs><path d="M466.56 647.04c5.76-33.92-28.16-47.36-39.68-71.68-5.12-10.24-1.92-26.88-7.68-39.68-7.04-15.36-21.12-23.04-28.16-35.84-24.96-45.44-3.2-64.64 3.84-103.68 2.56-14.08-1.92-30.08 0-48 4.48-47.36 22.4-94.08 44.16-128 23.68-37.76 77.44-76.16 80-96 5.12-42.88-58.88-96-108.16-112C258.56-36.48 164.48 70.4 147.2 195.84c-2.56 17.28 0 39.68-3.84 60.16-3.2 16-17.28 27.52-16 51.84 1.28 25.6 23.04 35.2 39.68 64 8.32 13.44 8.96 32.64 16 44.16 21.76 34.56 71.68 46.08 51.84 115.84-28.8 79.36-171.52 51.2-215.68 119.68-23.04 35.84-19.84 113.92-3.84 167.68 69.76 19.2 167.68 32 243.84 32 1.92-33.92 1.92-56.32 7.68-71.68C293.12 714.24 458.24 700.8 466.56 647.04z" p-id="2283"></path><path d="M1008.64 825.6c-39.68-83.2-208-52.48-227.2-138.24-16-69.76 30.08-78.08 52.48-113.92 7.68-12.16 7.04-30.08 16-44.8 7.04-12.16 23.04-12.8 28.16-20.48 24.96-35.84 1.92-69.76-3.84-101.76-16-83.2-17.92-149.12-56.96-190.72-67.84-71.68-219.52-76.8-288-8.32-20.48 20.48-34.56 52.48-44.8 85.12-11.52 37.76-8.32 74.88-16 117.76-4.48 23.68-17.92 39.04-16 60.8 2.56 26.24 24.96 35.84 40.32 64.64 7.04 12.8 5.76 30.08 12.16 40.32 18.56 30.72 64.64 35.84 56.96 97.28-12.8 105.6-183.68 62.08-227.2 150.4-19.2 39.04-16 99.84 0 158.08 189.44 53.12 489.6 55.68 673.92-3.84C1022.08 924.8 1028.48 867.2 1008.64 825.6z" p-id="2284"></path></svg>