<?xml version="1.0" standalone="no"?><!DOCTYPE svg PUBLIC "-//W3C//DTD SVG 1.1//EN" "http://www.w3.org/Graphics/SVG/1.1/DTD/svg11.dtd"><svg t="1602760459521" class="icon" viewBox="0 0 1024 1024" version="1.1" xmlns="http://www.w3.org/2000/svg" p-id="5284" xmlns:xlink="http://www.w3.org/1999/xlink" width="200" height="200"><defs><style type="text/css"></style></defs><path d="M620.730182 0h-227.141818c-27.834182 0-50.113939 24.513939-50.11394 54.799515 0 30.347636 22.341818 54.923636 50.14497 54.923637h228.538182c26.437818 0 48.748606-24.576 48.748606-54.923637C670.906182 24.513939 648.626424 0 620.730182 0z m246.628848 36.553697h-113.105454c1.148121 6.019879 1.830788 12.101818 1.830788 18.245818 0 46.11103-33.82303 91.477333-74.069334 91.477333H334.506667c-42.387394 0-76.272485-45.366303-76.272485-91.477333a100.227879 100.227879 0 0 1 1.861818-18.245818h-114.501818C53.682424 36.553697 31.030303 88.126061 31.030303 162.536727v736.845576C31.030303 979.285333 63.394909 1024 152.60703 1024h707.801212C949.620364 1024 992.969697 988.935758 992.969697 899.413333V162.505697c0-74.379636-40.587636-125.952-125.610667-125.952z m-116.208485 727.536485H259.320242c-18.152727 0-36.243394-21.969455-36.243394-39.936 0-17.873455 15.32897-33.202424 33.450667-33.202424h490.43394c18.152727 0 33.450667 13.932606 34.816 33.202424 0 17.966545-12.505212 39.936-30.62691 39.936z m2.01697-195.087515H261.275152c-18.121697 0-29.66497-19.269818-29.66497-37.236364s15.297939-35.933091 33.419636-35.933091h490.46497c18.121697 0 33.450667 16.663273 34.816 35.933091 0 17.935515-19.083636 37.236364-37.174303 37.236364z m0-200.393697H261.275152c-18.121697 0-29.66497-19.269818-29.66497-37.236364 0-17.935515 15.297939-35.902061 33.419636-35.902061h490.46497c18.121697 0 33.450667 16.632242 34.816 35.902061 0 17.966545-19.083636 37.236364-37.174303 37.236364z" p-id="5285"></path></svg>