<?xml version="1.0" standalone="no"?><!DOCTYPE svg PUBLIC "-//W3C//DTD SVG 1.1//EN" "http://www.w3.org/Graphics/SVG/1.1/DTD/svg11.dtd"><svg t="1602760005377" class="icon" viewBox="0 0 1024 1024" version="1.1" xmlns="http://www.w3.org/2000/svg" p-id="3648" xmlns:xlink="http://www.w3.org/1999/xlink" width="200" height="200"><defs><style type="text/css"></style></defs><path d="M489.344 4.608a39.296 39.296 0 0 1 36.8 0l480.96 287.232c10.24 6.08 10.304 15.872 0 22.016L526.144 601.088a39.296 39.296 0 0 1-36.864 0L8.32 313.792c-10.24-6.016-10.24-15.808 0-21.952L489.28 4.608z m470.528 475.968a41.984 41.984 0 0 1 42.688-0.384c13.248 7.68 21.44 21.888 21.44 37.312a43.072 43.072 0 0 1-21.376 37.376l-450.688 265.408a81.6 81.6 0 0 1-79.488 0L21.76 554.88A43.072 43.072 0 0 1 0 517.44c0-15.552 8.192-29.888 21.568-37.504a42.048 42.048 0 0 1 42.88 0.64l429.376 252.864a39.872 39.872 0 0 0 36.736 0l429.312-252.864z m0 193.344a42.048 42.048 0 0 1 42.688-0.32 43.072 43.072 0 0 1 0.064 74.624l-450.688 265.472a81.6 81.6 0 0 1-79.488 0L21.76 748.16a43.072 43.072 0 0 1-21.76-37.376c0-15.552 8.192-29.888 21.568-37.568a42.048 42.048 0 0 1 42.88 0.64l429.376 252.864a39.808 39.808 0 0 0 36.736 0l429.312-252.8z" p-id="3649"></path></svg>