<?xml version="1.0" standalone="no"?><!DOCTYPE svg PUBLIC "-//W3C//DTD SVG 1.1//EN" "http://www.w3.org/Graphics/SVG/1.1/DTD/svg11.dtd"><svg t="1602760551187" class="icon" viewBox="0 0 1024 1024" version="1.1" xmlns="http://www.w3.org/2000/svg" p-id="6061" xmlns:xlink="http://www.w3.org/1999/xlink" width="200" height="200"><defs><style type="text/css"></style></defs><path d="M816.4 734.1H706c-2.8 0-5 2.3-5 5v65.3c0 2.8 2.3 5 5 5h110.5c2.8 0 5-2.3 5-5v-65.1c0-2.9-2.3-5.2-5.1-5.2z m-49.7 22.2h28.4c2.8 0 5 2.3 5 5 0 2.8-2.3 5-5 5h-28.4c-2.8 0-5-2.3-5-5-0.1-2.8 2.2-5 5-5zM749 786.4c0 4.1-3.4 7.6-7.6 7.6h-25.1c-4.1 0-7.6-3.4-7.6-7.6v-30.1c0-4.1 3.4-7.6 7.6-7.6h25.1c4.1 0 7.6 3.4 7.6 7.6v30.1z m51 2.6h-33.3c-2.8 0-5-2.3-5-5 0-2.8 2.3-5 5-5H800c2.8 0 5 2.3 5 5s-2.2 5-5 5z" p-id="6062"></path><path d="M953.2 790.2c-1.8-20.6-5.2-38.7-9.5-55-3.6-19.4-16.2-66-56.5-97.6-26.3-23.2-83.4-30.7-89.7-31-34.4-3.9-62.8-15-86.3-23.4-73.7-32.8-106.4-93.1-110.1-100.7 16.8-7.2 35.9-31.7 51.8-56.7 8.8-12.4 17.3-26.6 24.6-42.3 6.3-11.9 10.2-19.9 10.2-19.9s2 1.6 5.1 2.3c9.5 3.1 26.8-0.9 36-63 13.1-88.6-18-77.1-18-77.1s11.2-99.6-61.9-157.2C620.4 44.7 579 28 518.8 29c-60.2-1.1-101.6 15.6-130 39.7-73 57.6-61.8 157.2-61.8 157.2s-31.1-11.5-18 77.1c9.2 62.1 26.4 66.1 36 63 3.1-0.8 5.1-2.3 5.1-2.3s3.8 8 10.2 19.9c7.2 15.8 15.7 29.9 24.6 42.3 15.9 24.9 35 49.4 51.8 56.7-3.6 7.5-36.3 67.9-110.1 100.7-23.5 8.3-51.9 19.5-86.3 23.4-6.5 0.3-63.4 7.8-89.7 31-40.3 31.5-52.9 78.2-56.5 97.6-4.3 16.2-7.7 34.4-9.5 55L69.2 997h898.7l-14.7-206.8z m-378.9 67.2l-49.8 57.4-61.8-59.1 46-252.6-46-41 27.9-31.1h52.5l31.1 31.1-41.8 41 41.9 254.3z m280.5-32.2c0 5.5-4.4 10.1-10.1 10.1H677.6c-5.5 0-10.1-4.4-10.1-10.1V718.3c0-5.5 4.6-10.1 10.1-10.1h167.1c5.5 0 10.1 4.4 10.1 10.1v106.9z" p-id="6063"></path></svg>